<svg width="49.201" height="70" viewBox="0 0 49.201 70" xmlns="http://www.w3.org/2000/svg"><g id="svgGroup" stroke-linecap="round" fill-rule="evenodd" font-size="9pt" stroke="#11e5b3" stroke-width="0.25mm" fill="#11e5b3" style="stroke:#11e5b3;stroke-width:0.25mm;fill:#11e5b3"><path d="M 0.001 25.9 L 0.001 24.7 A 31.498 31.498 0 0 1 0.603 18.384 A 23.036 23.036 0 0 1 3.151 11.5 Q 6.301 6 11.601 3 A 23.346 23.346 0 0 1 22.593 0.012 A 27.692 27.692 0 0 1 23.401 0 A 32.971 32.971 0 0 1 28.054 0.308 Q 30.497 0.657 32.493 1.402 A 14.626 14.626 0 0 1 35.851 3.15 A 24.459 24.459 0 0 1 39.401 6.18 A 18.178 18.178 0 0 1 42.401 10.3 L 43.601 10.3 L 43.601 1.4 L 49.201 1.4 L 49.201 62.4 Q 49.201 65.235 48.023 67.077 A 6.131 6.131 0 0 1 47.301 68 A 5.912 5.912 0 0 1 44.855 69.516 Q 43.913 69.834 42.763 69.943 A 13.357 13.357 0 0 1 41.501 70 L 8.301 70 L 8.301 64.6 L 40.301 64.6 A 4.629 4.629 0 0 0 41.508 64.457 Q 43.105 64.024 43.354 62.289 A 4.84 4.84 0 0 0 43.401 61.6 L 43.401 40.7 L 42.201 40.7 Q 40.901 43.1 38.551 45.4 A 15.798 15.798 0 0 1 35.382 47.776 A 21.255 21.255 0 0 1 32.501 49.15 A 19.309 19.309 0 0 1 28.938 50.142 Q 27.219 50.457 25.246 50.556 A 37.005 37.005 0 0 1 23.401 50.6 Q 16.901 50.6 11.551 47.6 Q 6.201 44.6 3.101 39.05 A 23.989 23.989 0 0 1 0.436 31.312 A 32.242 32.242 0 0 1 0.001 25.9 Z M 43.401 25.7 L 43.401 24.9 A 26.432 26.432 0 0 0 42.792 19.054 Q 41.866 14.971 39.532 11.995 A 16.063 16.063 0 0 0 38.251 10.55 Q 33.101 5.4 24.801 5.4 A 21.297 21.297 0 0 0 18.47 6.3 A 17.104 17.104 0 0 0 11.401 10.55 A 16.907 16.907 0 0 0 6.902 18.69 Q 6.244 21.345 6.203 24.48 A 32.064 32.064 0 0 0 6.201 24.9 L 6.201 25.7 A 25.684 25.684 0 0 0 6.843 31.617 A 17.167 17.167 0 0 0 11.401 40 A 17.532 17.532 0 0 0 22.311 45.073 A 23.811 23.811 0 0 0 24.801 45.2 A 21.538 21.538 0 0 0 30.997 44.35 A 16.849 16.849 0 0 0 38.251 40 A 17.182 17.182 0 0 0 42.735 31.737 Q 43.401 28.971 43.401 25.7 Z" vector-effect="non-scaling-stroke"/></g></svg>